<?xml version="1.0" encoding="utf-8"?>
<!-- Generator: Adobe Illustrator 23.0.4, SVG Export Plug-In . SVG Version: 6.00 Build 0)  -->
<svg version="1.1" id="Layer_1" xmlns="http://www.w3.org/2000/svg" xmlns:xlink="http://www.w3.org/1999/xlink" x="0px" y="0px"
	 viewBox="0 0 260 260" style="enable-background:new 0 0 260 260;" xml:space="preserve">
<style type="text/css">
	.st0{fill:#F4753C;}
	.st1{fill:#253E45;}
</style>
<g>
	<g>
		<path class="st0" d="M55.5,50.9c0.8-1.2-0.8-2.6-1.9-1.5c-20,20.9-32.2,49.3-32.2,80.5s12.3,59.6,32.2,80.5c1,1.1,2.7-0.3,1.9-1.5
			c-15.2-22.6-24.1-49.7-24.1-79S40.3,73.5,55.5,50.9z"/>
	</g>
	<g>
		<path class="st1" d="M111.6,109.5c-7.4,0-12.9,1.7-16.5,5.2c-2.9,2.8-4.4,6.6-4.4,11.1v0.3c0,0.7,0.6,1.3,1.3,1.3h7.1
			c0.7,0,1.3-0.6,1.3-1.3v-0.3c0-3.3,1.2-7.8,11.1-7.8c8.9,0,11.5,2.7,12.1,8.1c0.1,0.5-0.3,1-0.9,1.1l-13.7,1.6
			c-10.2,1.2-19.7,3.8-19.7,14.6c0,9.2,7.2,14.8,18.7,14.8c6.6,0,12.5-2,16.4-5.4c0.6-0.5,1.5-0.2,1.6,0.6l0.5,3.2
			c0.1,0.7,0.7,1.1,1.3,1.1h4.3c0.7,0,1.3-0.6,1.3-1.3v-25.8c0-5.5-0.5-11.2-3.9-15.2C126.4,111.3,120.6,109.5,111.6,109.5z
			 M122.8,135.6c0.6-0.1,1.1,0.4,1.1,1l0,0c0,9.7-7.3,13.1-14.2,13.1c-3.7,0-10-0.8-10-6.4c0-3,1.7-4.7,10.9-6L122.8,135.6z"/>
		<path class="st1" d="M158.8,109.5c-7.4,0-12.9,1.7-16.5,5.2c-2.9,2.8-4.4,6.6-4.4,11.1v0.3c0,0.7,0.6,1.3,1.3,1.3h7.1
			c0.7,0,1.3-0.6,1.3-1.3v-0.3c0-3.3,1.2-7.8,11.1-7.8c8.9,0,11.5,2.7,12.1,8.1c0.1,0.5-0.3,1-0.9,1.1l-13.7,1.6
			c-10.2,1.2-19.7,3.8-19.7,14.6c0,9.2,7.2,14.8,18.7,14.8c6.6,0,12.5-2,16.4-5.4c0.6-0.5,1.5-0.2,1.6,0.6l0.5,3.2
			c0.1,0.7,0.7,1.1,1.3,1.1h4.3c0.7,0,1.3-0.6,1.3-1.3v-25.8c0-5.5-0.5-11.2-3.9-15.2C173.6,111.3,167.8,109.5,158.8,109.5z
			 M170,135.6c0.6-0.1,1.1,0.4,1.1,1l0,0c0,9.7-7.3,13.1-14.2,13.1c-3.7,0-10-0.8-10-6.4c0-3,1.7-4.7,10.9-6L170,135.6z"/>
		<path class="st1" d="M191.7,113.3l-0.6-2.3c-0.2-0.6-0.7-1-1.3-1h-3.5c-0.7,0-1.3,0.6-1.3,1.3v45c0,0.7,0.6,1.3,1.3,1.3h7.2
			c0.7,0,1.3-0.6,1.3-1.3v-24.7c0-5.5,0.9-8.7,2.9-10.6c2-1.9,4.5-2.4,10.7-2.4h0.4c0.7,0,1.3-0.6,1.3-1.3v-6c0-0.7-0.6-1.3-1.3-1.3
			h-0.3c-7.7-0.1-12.3,1.4-15.2,3.8C192.7,114.3,191.9,114,191.7,113.3z"/>
		<g>
			<path class="st1" d="M55.5,98.9H48c-0.7,0-1.3,0.6-1.3,1.3v56.1c0,0.7,0.6,1.3,1.3,1.3h7.4c0.7,0,1.3-0.6,1.3-1.3v-56.1
				C56.8,99.5,56.2,98.9,55.5,98.9z"/>
		</g>
		<path class="st1" d="M91.4,156.1l-20.5-25.9c-0.9-1.1-0.9-2.7,0-3.9l20.5-25.9c0.5-0.6,0.1-1.6-0.8-1.6h-9.3c-0.8,0-1.6,0.4-2.1,1
			L62,122.5c-1.1,1.4-1.6,3.1-1.6,4.8v2c0,1.7,0.6,3.4,1.6,4.8l17.3,22.5c0.5,0.7,1.3,1,2.1,1h9.3C91.5,157.7,91.9,156.8,91.4,156.1
			z"/>
		<path class="st1" d="M239,111.2c-0.1-0.7-0.6-1.2-1.3-1.2h-8.5c-0.5,0-1-0.4-1-1v-8.8c0-0.7-0.6-1.3-1.3-1.3h-7
			c-0.7,0-1.3,0.6-1.3,1.3v8.8c0,0.5-0.4,1-1,1h-3.8c-0.7,0-1.3,0.6-1.3,1.3v6c0,0.7,0.6,1.3,1.3,1.3h3.8c0.5,0,1,0.4,1,1V143
			c0,10.4,5.6,15.1,18.1,15.1c0.4,0,0.8,0,1.2,0c0.6,0,1.1-0.6,1.1-1.2v-6.4c0-0.7-0.5-1.2-1.2-1.2c-0.1,0-0.2,0-0.3,0
			c-8.4,0-9.1-2.5-9.1-6.3v-23.3c0-0.5,0.4-1,1-1h8.2c0.7,0,1.3-0.5,1.3-1.2c0,0,0-0.1,0-0.1v-6C239,111.3,239,111.3,239,111.2z"/>
	</g>
</g>
</svg>
