<?xml version="1.0" encoding="UTF-8"?>
<svg width="113px" height="30px" viewBox="0 0 113 30" version="1.1" xmlns="http://www.w3.org/2000/svg" xmlns:xlink="http://www.w3.org/1999/xlink">
    <!-- Generator: Sketch 52.6 (67491) - http://www.bohemiancoding.com/sketch -->
    <title>Group 15</title>
    <desc>Created with Sketch.</desc>
    <g id="Page-1" stroke="none" stroke-width="1" fill="none" fill-rule="evenodd">
        <g id="Desktop-HD-Copy-21" transform="translate(-20.000000, -11.000000)">
            <g id="Group-15" transform="translate(20.000000, 11.000000)">
                <path d="M48.02,9.28 C48.7240035,9.28 49.2556649,9.39733216 49.615,9.632 C49.9743351,9.86666784 50.2126661,10.2003312 50.33,10.633 C50.4473339,11.0656688 50.506,11.648663 50.506,12.382 L50.506,20.148 C50.506,20.2800007 50.476667,20.3679998 50.418,20.412 C50.359333,20.4560002 50.1833348,20.4816666 49.89,20.489 C49.5966652,20.4963334 49.2080024,20.5 48.724,20.5 L48.724,12.36 C48.724,11.7879971 48.654334,11.3920011 48.515,11.172 C48.375666,10.9519989 48.0860022,10.842 47.646,10.842 C47.1033306,10.842 46.6046689,10.9813319 46.15,11.26 L46.15,20.148 C46.15,20.2800007 46.1243336,20.3679998 46.073,20.412 C46.0216664,20.4560002 45.8566681,20.4816666 45.578,20.489 C45.2993319,20.4963334 44.9106692,20.5 44.412,20.5 L44.39,20.5 L44.39,12.316 C44.39,11.9053313 44.3680002,11.601001 44.324,11.403 C44.2799998,11.204999 44.1810008,11.0583338 44.027,10.963 C43.8729992,10.8676662 43.627335,10.82 43.29,10.82 C42.7619974,10.82 42.2633357,10.9519987 41.794,11.216 L41.794,20.148 C41.794,20.2800007 41.764667,20.3679998 41.706,20.412 C41.647333,20.4560002 41.4713348,20.4816666 41.178,20.489 C40.8846652,20.4963334 40.4960024,20.5 40.012,20.5 L40.012,10.006 C41.082672,9.52199758 42.1899943,9.28 43.334,9.28 C44.2433379,9.28 44.9106645,9.50733106 45.336,9.962 C45.7026685,9.75666564 46.1316642,9.59166729 46.623,9.467 C47.1143358,9.34233271 47.5799978,9.28 48.02,9.28 Z M55.06,20.72 C54.1213286,20.72 53.384336,20.4963356 52.849,20.049 C52.313664,19.6016644 52.046,18.7106733 52.046,17.376 C52.046,15.9826597 52.313664,15.0330025 52.849,14.527 C53.384336,14.0209975 54.0993289,13.768 54.994,13.768 C55.6833368,13.768 56.2186648,13.8633324 56.6,14.054 L56.6,12.316 C56.6,11.8173308 56.4900011,11.4726676 56.27,11.282 C56.0499989,11.0913324 55.7053357,10.996 55.236,10.996 C54.7079974,10.996 54.1726694,11.0436662 53.63,11.139 C53.0873306,11.2343338 52.647335,11.3553326 52.31,11.502 C52.1486659,11.1939985 52.068,10.8493352 52.068,10.468 C52.068,10.1746652 52.1486659,9.97666718 52.31,9.874 C52.5300011,9.7273326 52.9553302,9.59166729 53.586,9.467 C54.2166698,9.34233271 54.9133295,9.28 55.676,9.28 C56.6293381,9.28 57.3186645,9.48533128 57.744,9.896 C58.1693355,10.3066687 58.382,10.9959952 58.382,11.964 L58.382,13.13 C58.382,16.3566828 58.3380004,18.6373267 58.25,19.972 C57.8979982,20.1920011 57.4506694,20.371666 56.908,20.511 C56.3653306,20.650334 55.7493368,20.72 55.06,20.72 Z M55.368,19.224 C55.6026678,19.224 55.8299989,19.1873337 56.05,19.114 C56.2700011,19.0406663 56.4313328,18.9600004 56.534,18.872 C56.5780002,18.3733308 56.6,17.1853427 56.6,15.308 C56.3213319,15.1613326 55.9766687,15.088 55.566,15.088 C55.0379974,15.088 54.6273348,15.2419985 54.334,15.55 C54.0406652,15.8580015 53.894,16.4519956 53.894,17.332 C53.894,18.0800037 54.0149988,18.582332 54.257,18.839 C54.4990012,19.0956679 54.8693308,19.224 55.368,19.224 Z M61.066,24.834 C60.7433317,24.834 60.5196673,24.7790005 60.395,24.669 C60.2703327,24.5589994 60.208,24.3573348 60.208,24.064 L60.208,10.16 C61.1320046,9.5733304 62.2026606,9.28 63.42,9.28 C64.5933392,9.28 65.4843303,9.61732996 66.093,10.292 C66.7016697,10.96667 67.006,12.1546582 67.006,13.856 C67.006,16.5106799 66.6943365,18.3183285 66.071,19.279 C65.4476636,20.2396715 64.6666714,20.72 63.728,20.72 C63.3466648,20.72 63.0056682,20.6613339 62.705,20.544 C62.4043318,20.4266661 62.1660009,20.2800009 61.99,20.104 L61.99,24.702 C61.7113319,24.7900004 61.403335,24.834 61.066,24.834 Z M63.178,19.136 C64.4246729,19.136 65.048,17.4420169 65.048,14.054 C65.048,13.1886623 64.9856673,12.5213357 64.861,12.052 C64.7363327,11.5826643 64.5530012,11.2600009 64.311,11.084 C64.0689988,10.9079991 63.7426687,10.82 63.332,10.82 C62.8333308,10.82 62.386002,10.9593319 61.99,11.238 L61.99,18.41 C62.2833348,18.8940024 62.6793308,19.136 63.178,19.136 Z M77.412,9.896 C77.4413335,9.7493326 77.4889997,9.65400022 77.555,9.61 C77.6210003,9.56599978 77.7933319,9.53666674 78.072,9.522 C78.3506681,9.50733326 78.7173311,9.5 79.172,9.5 C78.9373322,10.6586725 78.4936699,12.7926511 77.841,15.902 C77.1883301,19.0113489 76.8400002,20.566 76.796,20.566 C76.7519998,20.5806667 76.6273344,20.5953333 76.422,20.61 C76.2166656,20.6246667 75.9600015,20.632 75.652,20.632 C75.4759991,20.632 75.2963343,20.533001 75.113,20.335 C74.9296658,20.136999 74.8013337,19.8546685 74.728,19.488 L74.442,17.992 C74.104665,16.4373256 73.8333344,14.6113438 73.628,12.514 C73.3639987,14.8313449 73.0926681,16.6646599 72.814,18.014 L72.308,20.566 C72.2053328,20.5806667 72.0110014,20.5953333 71.725,20.61 C71.4389986,20.6246667 71.1420015,20.632 70.834,20.632 C70.4819982,20.632 70.2326674,20.2726703 70.086,19.554 C69.8219987,18.424661 69.4406692,16.7160114 68.942,14.428 C68.4433308,12.1399886 68.1133341,10.6220037 67.952,9.874 C67.9226665,9.74199934 67.9446663,9.65400022 68.018,9.61 C68.0913337,9.56599978 68.2893317,9.53666674 68.612,9.522 C68.9346683,9.50733326 69.3526641,9.5 69.866,9.5 L70.548,13.086 C70.7240009,14.1126718 70.8853326,15.1833278 71.032,16.298 C71.1786674,17.4126722 71.2739998,18.1313317 71.318,18.454 L71.45,18.454 C71.7286681,16.4593234 71.9339993,15.1026703 72.066,14.384 L72.77,10.182 C72.7993335,10.0206659 72.8469997,9.91800022 72.913,9.874 C72.9790003,9.82999978 73.1219989,9.808 73.342,9.808 L74.508,9.808 L75.366,14.428 C75.5273341,15.1320035 75.6739993,15.9129957 75.806,16.771 C75.9380007,17.6290043 76.0186665,18.1899987 76.048,18.454 L76.158,18.454 C76.216667,17.7646632 76.3119993,16.9066718 76.444,15.88 C76.5760007,14.8533282 76.7153326,13.9220042 76.862,13.086 L77.412,9.896 Z M80.536,10.314 C80.536,10.0353319 80.5836662,9.84100055 80.679,9.731 C80.7743338,9.62099945 80.9319989,9.55500011 81.152,9.533 C81.3720011,9.51099989 81.7606639,9.5 82.318,9.5 L82.318,20.148 C82.318,20.2800007 82.2923336,20.3679998 82.241,20.412 C82.1896664,20.4560002 82.0173348,20.4816666 81.724,20.489 C81.4306652,20.4963334 81.0346692,20.5 80.536,20.5 L80.536,10.314 Z M81.35,7.96 C80.7633304,7.96 80.47,7.53467092 80.47,6.684 C80.47,5.74532864 80.80733,5.276 81.482,5.276 C81.8046683,5.276 82.0319993,5.37133238 82.164,5.562 C82.2960007,5.75266762 82.362,6.08266432 82.362,6.552 C82.362,6.9920022 82.2740009,7.33666542 82.098,7.586 C81.9219991,7.83533458 81.6726683,7.96 81.35,7.96 Z M87.356,20.72 C86.7546637,20.72 86.3036682,20.5916679 86.003,20.335 C85.7023318,20.078332 85.5043338,19.7190023 85.409,19.257 C85.3136662,18.7949977 85.266,18.1900037 85.266,17.442 L85.266,11.018 L83.77,11.018 C83.77,10.621998 83.7773333,10.3030012 83.792,10.061 C83.8066667,9.81899879 83.8396664,9.66500033 83.891,9.599 C83.9423336,9.53299967 84.0266661,9.5 84.144,9.5 L85.266,9.5 L85.266,6.156 C85.266,5.95066564 85.3136662,5.80766707 85.409,5.727 C85.5043338,5.64633293 85.6583323,5.59500011 85.871,5.573 C86.0836677,5.55099989 86.4686639,5.54 87.026,5.54 L87.026,9.5 L89.314,9.5 C89.314,9.89600198 89.3066667,10.2186654 89.292,10.468 C89.2773333,10.7173346 89.2443336,10.871333 89.193,10.93 C89.1416664,10.988667 89.0573339,11.018 88.94,11.018 L87.026,11.018 L87.026,17.442 C87.026,18.0433363 87.0736662,18.4869986 87.169,18.773 C87.2643338,19.0590014 87.4879982,19.202 87.84,19.202 C88.0746678,19.202 88.2799991,19.1763336 88.456,19.125 C88.6320009,19.0736664 88.8519987,18.9893339 89.116,18.872 C89.2040004,19.1653348 89.248,19.4586652 89.248,19.752 C89.248,20.1040018 89.0646685,20.3533326 88.698,20.5 C88.3313315,20.6466674 87.8840026,20.72 87.356,20.72 Z M90.766,5.144 C90.766,4.86533194 90.8099996,4.67100055 90.898,4.561 C90.9860004,4.45099945 91.1399989,4.38500011 91.36,4.363 C91.5800011,4.34099989 91.9686639,4.33 92.526,4.33 L92.526,10.138 C92.8486683,9.85933194 93.2336644,9.6466674 93.681,9.5 C94.1283356,9.3533326 94.5719978,9.28 95.012,9.28 C95.9066711,9.28 96.5116651,9.51099769 96.827,9.973 C97.1423349,10.4350023 97.3,11.1719949 97.3,12.184 L97.3,20.148 C97.3,20.2800007 97.2670003,20.3679998 97.201,20.412 C97.1349997,20.4560002 96.9553348,20.4816666 96.662,20.489 C96.3686652,20.4963334 95.9800024,20.5 95.496,20.5 L95.496,12.668 C95.496,12.1106639 95.4080009,11.6816682 95.232,11.381 C95.0559991,11.0803318 94.7113359,10.93 94.198,10.93 C93.9193319,10.93 93.6333348,10.9776662 93.34,11.073 C93.0466652,11.1683338 92.7753346,11.3186656 92.526,11.524 L92.526,20.148 C92.526,20.2800007 92.5003336,20.3679998 92.449,20.412 C92.3976664,20.4560002 92.2290014,20.4816666 91.943,20.489 C91.6569986,20.4963334 91.2646692,20.5 90.766,20.5 L90.766,5.144 Z M100.182,20.632 C99.7419978,20.632 99.4266676,20.5256677 99.236,20.313 C99.0453324,20.1003323 98.95,19.7886687 98.95,19.378 C98.95,19.0259982 99.0636655,18.7290012 99.291,18.487 C99.5183345,18.2449988 99.8153315,18.124 100.182,18.124 C100.988671,18.124 101.392,18.5419958 101.392,19.378 C101.392,19.7446685 101.282001,20.0453322 101.062,20.28 C100.841999,20.5146678 100.548669,20.632 100.182,20.632 Z M105.814,20.72 C104.875329,20.72 104.138336,20.4963356 103.603,20.049 C103.067664,19.6016644 102.8,18.7106733 102.8,17.376 C102.8,15.9826597 103.067664,15.0330025 103.603,14.527 C104.138336,14.0209975 104.853329,13.768 105.748,13.768 C106.437337,13.768 106.972665,13.8633324 107.354,14.054 L107.354,12.316 C107.354,11.8173308 107.244001,11.4726676 107.024,11.282 C106.803999,11.0913324 106.459336,10.996 105.99,10.996 C105.461997,10.996 104.926669,11.0436662 104.384,11.139 C103.841331,11.2343338 103.401335,11.3553326 103.064,11.502 C102.902666,11.1939985 102.822,10.8493352 102.822,10.468 C102.822,10.1746652 102.902666,9.97666718 103.064,9.874 C103.284001,9.7273326 103.70933,9.59166729 104.34,9.467 C104.97067,9.34233271 105.66733,9.28 106.43,9.28 C107.383338,9.28 108.072665,9.48533128 108.498,9.896 C108.923335,10.3066687 109.136,10.9959952 109.136,11.964 L109.136,13.13 C109.136,16.3566828 109.092,18.6373267 109.004,19.972 C108.651998,20.1920011 108.204669,20.371666 107.662,20.511 C107.119331,20.650334 106.503337,20.72 105.814,20.72 Z M106.122,19.224 C106.356668,19.224 106.583999,19.1873337 106.804,19.114 C107.024001,19.0406663 107.185333,18.9600004 107.288,18.872 C107.332,18.3733308 107.354,17.1853427 107.354,15.308 C107.075332,15.1613326 106.730669,15.088 106.32,15.088 C105.791997,15.088 105.381335,15.2419985 105.088,15.55 C104.794665,15.8580015 104.648,16.4519956 104.648,17.332 C104.648,18.0800037 104.768999,18.582332 105.011,18.839 C105.253001,19.0956679 105.623331,19.224 106.122,19.224 Z M110.984,10.314 C110.984,10.0353319 111.031666,9.84100055 111.127,9.731 C111.222334,9.62099945 111.379999,9.55500011 111.6,9.533 C111.820001,9.51099989 112.208664,9.5 112.766,9.5 L112.766,20.148 C112.766,20.2800007 112.740334,20.3679998 112.689,20.412 C112.637666,20.4560002 112.465335,20.4816666 112.172,20.489 C111.878665,20.4963334 111.482669,20.5 110.984,20.5 L110.984,10.314 Z M111.798,7.96 C111.21133,7.96 110.918,7.53467092 110.918,6.684 C110.918,5.74532864 111.25533,5.276 111.93,5.276 C112.252668,5.276 112.479999,5.37133238 112.612,5.562 C112.744001,5.75266762 112.81,6.08266432 112.81,6.552 C112.81,6.9920022 112.722001,7.33666542 112.546,7.586 C112.369999,7.83533458 112.120668,7.96 111.798,7.96 Z" id="mapwith.ai" fill="#0F1C4E" fill-rule="nonzero"></path>
                <g id="Group-9">
                    <path d="M8.90864995,16.2687824 L8.90864995,13.5072276 C8.90864995,12.468998 9.44546307,11.5045716 10.3278643,10.9574988 L13.0807839,9.25073843 C13.9631851,8.70366565 14.4999983,7.7392392 14.4999983,6.7010097 L14.5000031,3.36929522 C14.5000031,1.71243833 13.1568552,0.369290432 11.4999983,0.369290432 C11.2111256,0.369290432 10.9237672,0.411012964 10.6468225,0.493165894 C7.20625315,1.51377727 4.44258586,3.68457974 2.35582066,7.00557333 C0.166694393,10.56252 -0.496761683,14.349517 0.365452437,18.3665643 L0.365453947,18.366564 C0.713159742,19.986522 2.3082664,21.0178861 3.92822438,20.6701804 C4.22305932,20.6068973 4.50666808,20.4995237 4.76948837,20.3516796 L7.37949173,18.8834764 C8.3240901,18.3521122 8.90864995,17.3525785 8.90864995,16.2687824 Z" id="Oval" fill="#0F1D4F"></path>
                    <path d="M24.4086499,16.2687824 L24.4086499,13.5072276 C24.4086499,12.468998 24.9454631,11.5045716 25.8278643,10.9574988 L28.5807839,9.25073843 C29.4631851,8.70366565 29.9999983,7.7392392 29.9999983,6.7010097 L30.0000031,3.36929522 C30.0000031,1.71243833 28.6568552,0.369290432 26.9999983,0.369290432 C26.7111256,0.369290432 26.4237672,0.411012964 26.1468225,0.493165894 C22.7062532,1.51377727 19.9425859,3.68457974 17.8558207,7.00557333 C15.6666944,10.56252 15.0032383,14.349517 15.8654524,18.3665643 L15.8654539,18.366564 C16.2131597,19.986522 17.8082664,21.0178861 19.4282244,20.6701804 C19.7230593,20.6068973 20.0066681,20.4995237 20.2694884,20.3516796 L22.8794917,18.8834764 C23.8240901,18.3521122 24.4086499,17.3525785 24.4086499,16.2687824 Z" id="Oval" fill="#0F1D4F" transform="translate(22.750000, 10.750000) scale(-1, 1) translate(-22.750000, -10.750000) "></path>
                    <path d="M16.5557566,29.1230476 L16.5284879,26.6989043 C16.516444,25.628212 17.0759772,24.6322682 17.9966735,24.0856008 L20.5524085,22.5681219 C21.4731048,22.0214545 22.0326381,21.0255107 22.0205941,19.9548185 L21.9859769,16.8773008 C21.9673405,15.2205507 20.6091714,13.8925972 18.9524213,13.9112336 C18.6987117,13.9140875 18.446389,13.9491157 18.201496,14.0154793 C14.746439,14.9517655 11.989381,17.024188 9.93032198,20.232747 C7.78160723,23.6529948 7.16496289,27.3137451 8.08038894,31.2149981 L8.0803771,31.2150009 C8.45887771,32.8280494 10.0733473,33.8288482 11.6863958,33.4503476 C11.9424261,33.3902703 12.1894454,33.2967886 12.4211023,33.1723061 L14.9759831,31.7994223 C15.9596446,31.2708446 16.5683171,30.2396615 16.5557566,29.1230476 Z" id="Oval" fill="#0F1D4F" transform="translate(14.845471, 23.720696) rotate(-120.000000) translate(-14.845471, -23.720696) "></path>
                    <path d="M10.0970874,4.51652867 L10.1488603,4.66570378 L10.515823,4.7342437 L10.6529311,5.17773727 L10.4304878,5.18983255 L10.5269399,5.69380252 L11.1161343,5.91151755 L11.3754222,5.786533 L11.5866428,6.10504202 L12.038835,5.88732699 L11.6719781,5.40754758 L11.8608591,5.02049864 L11.5866428,5.02049864 L11.4385237,4.82294241 L11.2420197,4.87132353 L11.3458831,4.61732266 L10.9271474,3.91176471 L10.5898296,3.91176471 L10.0970874,4.51652867 Z M11.3217413,3.69091387 L11.3106796,3.90795693 L11.74251,3.97268908 L11.3739651,4.1668855 L11.6679501,4.64285714 L12.3977009,4.64285714 L12.5242718,4.42581408 L12.3530288,4.26207983 L12.2190124,4.37250525 L11.8801426,4.01457458 L12.174234,3.77849265 L12.0477694,3.66806723 L11.3217413,3.69091387 Z M12.8711214,3.66806723 L12.5242718,3.7367144 L12.5401278,3.91176471 L13.0097087,3.85341461 L12.9938528,3.74701148 L12.8711214,3.66806723 Z M13.4829748,3.91176471 L13.2524272,4.12064826 L13.7098312,4.39915966 L13.7378641,4.24524547 L13.4829748,3.91176471 Z M13.8571241,3.91176471 L13.7378641,4.32953181 L14.1254591,4.39915966 L14.1595334,4.37868088 L14.223301,4.21485065 L13.8571241,3.91176471 Z M14.406043,3.59633019 L14.2876799,4.0739981 L14.3105889,4.10456884 L14.8069504,4.50580988 L14.4938609,4.81916002 L13.9402269,4.71216241 L13.8561181,4.76566122 L14.2571346,4.99494181 L13.9631358,5.29682793 L14.222662,5.43821762 L13.7378641,5.9579203 L14.2036803,6.43558821 L14.2342256,6.43558821 L14.658042,6.5234791 L14.7305871,6.59608462 L14.936659,6.44705224 L15.5322928,6.86739999 L15.2613121,6.97821894 L15.3376754,7.17310745 L15.6202197,7.18457148 L15.6964739,7.38710267 L15.3834934,7.82273579 L14.9061136,7.89916266 L14.7534961,8.2125128 L15.0131314,8.38447325 L15.0474949,8.38447325 L15.3720389,8.2125128 L15.856946,8.76278623 L16.3762165,8.78571429 L16.41058,8.67871668 L15.9027639,8.33097444 L16.5822883,8.4952922 L16.6167609,8.34243847 L16.2922168,7.91826937 L16.3684711,7.75777296 L16.8649417,8.17812071 L17.1359223,7.63931132 L16.8649417,7.61638326 L16.1929445,7.13871536 L16.433489,6.85593596 L15.8034916,6.3820894 L15.6964739,6.08784597 L15.3491299,5.92734956 L15.3071301,5.6751409 L14.8412048,5.60253538 L14.406043,5.44968165 L15.0894947,5.36179076 L14.959568,5.17836629 L14.4938609,5.07901136 L14.5281153,4.98347778 L14.959568,4.94144301 L15.3605844,5.07136868 L15.5667654,4.88412286 L15.5667654,4.75419719 L15.9791273,4.42938301 L16.3762165,4.23449451 L17.0291228,3.8447175 L16.3991255,3.42436975 L16.2387625,3.63836497 L15.8682914,3.49697527 L15.5209474,3.72625586 L15.3491299,3.55429542 L15.3184755,3.55429542 L14.9061136,3.61925825 L15.0894947,3.87910959 L14.8412048,3.90968034 L14.7228417,3.67275706 L14.406043,3.59633019 Z M13.0931098,4.42900017 L13.0097087,4.55333562 L13.3272743,5.10538501 L13.7378641,5.1302521 L13.7024874,4.89152804 L13.5196466,4.89152804 L13.5454001,4.49862802 L13.3914289,4.39915966 L13.3112356,4.51354828 L13.0931098,4.42900017 Z M16.9056434,4.60392783 L16.7635755,4.74796628 L16.3301367,4.6623218 L16.1650485,4.80636024 L16.4375647,4.98154214 L16.1996886,5.02436438 L16.1996886,5.27740489 L16.7635755,5.5421242 L17.1779403,5.44480092 L17.9300453,6.05209816 L17.853311,6.3713185 L17.9300453,6.60489435 L18.3098797,6.60489435 L18.4709119,6.88129245 L18.1142074,6.83457728 L18.0143433,7.21219159 L18.417198,7.36401589 L18.5591563,7.00197331 L18.6589108,7.45355331 L18.3328999,7.77277365 L18.3866139,8.15038795 L18.8431825,8.7226488 L18.8737666,8.98736811 L19.6679658,9.51680672 L20.1361542,9.4506269 L20.3318264,8.62532553 L20.2013782,8.20488898 L20.3970505,8.03749295 L20.5927228,8.08420812 L20.6271436,8.03749295 L20.9303534,7.57423417 L20.9303534,7.43019572 L21.244854,7.37569469 L21.6822391,6.86961366 L21.7475728,6.51535694 L21.4405263,6.0949204 L21.2026502,6.05209816 L21.1145155,5.86523747 L21.333208,5.87691626 L21.3446085,5.56548178 L21.0301078,5.34358472 L21.006978,5.04772196 L20.7807216,4.87254007 L20.6693474,4.52996214 L20.3548467,4.37424491 L20.3662472,3.76694767 L20.1705749,3.73191129 L19.863638,3.94212957 L19.5606475,3.85648509 L19.0273446,3.96548715 L19.0387452,3.86427095 L19.6258716,3.75526888 L19.2652207,3.54505061 L18.8431825,3.72412543 L18.9198071,3.52558595 L19.0694388,3.46719199 L18.8853863,3.42436975 L18.4939322,3.46719199 L18.3635936,3.73191129 L18.1909416,3.67741026 L17.9300453,3.80976991 L18.079677,4.03166698 L17.788087,4.06670336 L17.7764672,3.88762853 L16.7329914,4.20684887 L16.6024336,4.41706715 L16.6446374,4.44042473 L17.1358461,4.60392783 L16.9056434,4.60392783 Z M22.8155995,7.40521572 L22.0712038,7.48690202 L21.9902913,7.6952021 L23.0339478,8.05462185 L23.0785653,8.05462185 L23.4466019,7.62576874 L23.1271129,7.32352941 L22.8155995,7.40521572 Z M21.8852063,2.93697479 L21.7475728,3.0825603 L21.7922107,3.10787952 L22.1752462,3.32309287 L21.7995441,3.37689621 L21.8293026,3.44968897 L22.2609084,3.44968897 L22.6552096,3.66806723 L22.7184466,3.54463604 L22.7184466,3.52881152 L22.3165994,3.31043326 L22.3018264,3.14902325 L21.8852063,2.93697479 Z M27.815534,11.7581822 L27.9436354,12.0628041 L27.9874595,12.2487837 L28.2369202,12.4411765 L28.3009709,12.3321539 L28.0885922,12.1782397 L28.0885922,12.1397612 L28.1222068,11.8672048 L27.8727462,11.710084 L27.815534,11.7581822 Z M29.9769027,13.8276474 C29.9923009,14.0941915 30,14.3645986 30,14.6350056 C30,16.8021252 29.5419036,18.8610819 28.7257991,20.7268908 L28.879891,19.4714293 L28.7488964,19.0658187 L28.5102243,19.3284999 L28.0290306,19.0001484 L27.3515098,20.1358581 L26.5239667,20.4333059 L26.008017,20.1822136 L25.9541233,19.9388473 L25.3883495,19.1199001 L25.4191459,18.8456301 L25.6692567,18.5829489 L25.6616675,18.1889272 L25.4729296,17.6828797 L25.5499206,17.2888579 L26.4007811,15.6355118 L26.6547414,14.5422946 L26.6740991,13.8817288 L27.0666432,13.8817288 L27.6249379,13.3795442 L28.0059333,12.657171 L28.2908,12.8078264 L28.410136,13.2366148 L29.0454217,13.1941222 L29.0876567,12.4601602 L29.3803325,12.197479 L29.9769027,13.8276474 Z M20.0485437,0.5 C24.7130739,2.21631133 28.2994568,6.10866023 29.5145631,10.9204616 L29.2254647,10.7902059 L28.8269777,10.5296943 L28.6589881,10.6714432 L28.8698402,11.3457084 L28.7800969,11.4299916 L28.483185,11.0392242 L27.8854545,10.5526806 L27.8854545,10.801699 L28.326804,11.1043521 L28.4479128,11.4836263 L28.4049387,11.60622 L27.9049882,10.9970827 L27.5611955,10.9970827 L27.5416618,11.464471 L27.3071461,11.4836263 L27.0102342,11.8437452 L27.0844622,13.1156545 L26.9087707,13.4834355 L26.1780996,13.6596639 L25.9124416,13.3110381 L25.9905763,12.6597593 L25.8461387,12.4528825 L25.9672475,12.2230193 L26.2680661,12.2115262 L26.6079521,11.974001 L26.6079521,11.6138821 L26.3422941,11.38785 L26.3344806,11.2154526 L25.9905763,11.0851969 L26.0453822,10.8553337 L26.0688227,10.8208543 L26.275768,10.7020917 L26.4007835,9.80179443 L26.3657345,9.31141976 L26.5884184,8.97428718 L26.0766361,8.68312722 L26.2211853,8.32300833 L26.4203172,8.39962937 L26.3344806,8.69462038 L26.6976954,8.813383 L26.9204909,8.64098565 L26.9633534,8.23872518 L26.4868433,7.38823162 L26.7095272,7.35758321 L26.7095272,7.21583428 L26.7095272,7.18518586 L26.2211853,6.92084327 L26.5218923,6.34618546 L26.1430506,6.15080181 L26.1235169,6.62968331 L25.2366881,5.52250927 L25.1037474,5.64127188 L26.2446257,7.19284797 L26.6313925,8.20424572 L26.5218923,8.28086676 L26.01011,7.68322263 L25.9124416,7.68322263 L25.9672475,8.16210414 L25.7328434,8.22723203 L25.0138925,7.55296686 L25.1037474,6.71779751 L24.7249057,5.94392499 L24.2717245,5.28115299 L24.3850198,5.13940406 L24.10753,4.64136729 L24.10753,4.34637628 L24.3928332,4.46896995 L25.0022839,5.00914829 L25.4475401,5.06661407 L24.4708563,3.9134674 L23.7755691,3.14342593 L23.3653619,3.05531173 L22.478533,2.26228395 L22.5448359,2.16650765 L23.4511984,2.67603758 L22.9550431,2.05540714 L20.5837664,0.90609152 L20.0485437,0.5 Z M17.1616089,10.4064036 L17.2266852,10.1723178 L16.7481831,9.35301762 L16.3346479,9.6417234 L15.9250501,9.49737051 L15.9328155,9.05650897 L14.8609709,8.58053456 L14.3059085,9.26718616 L14.5890723,9.79778059 L14.5547295,10.2386421 L14.0456033,10.3400793 L13.9460749,11.1593795 L13.4598074,10.9487023 L13.3489043,10.4064036 L13.3948405,10.1411064 L12.0281292,9.24377759 L12.0588627,8.84583177 L11.7679334,8.58053456 L11.7564494,8.32694163 L12.4263523,8.02653156 L13.0694591,8.01482727 L13.0158669,7.70661433 L13.4254646,7.71831862 L13.502025,7.61688145 L13.1881276,7.44131712 L13.2110957,7.36328853 L13.5479612,7.51934571 L13.7852982,7.48423284 L14.1413037,7.53105 L14.512512,7.23063992 L14.4130929,6.77807409 L14.0876021,6.74296122 L13.8388904,7.00825843 L13.6320682,6.98875129 L13.7966729,6.64542548 L13.7202219,6.51277688 L13.4827755,6.64542548 L13.2952027,6.39963542 L13.4827755,6.13433821 L13.2416105,5.62715236 L13.601444,5.63885665 L13.815813,5.33844657 L13.6550363,5.18238939 L13.1115673,5.31503799 L13.1229419,5.04974078 L12.7747018,4.96390933 L12.7555617,5.24091083 L12.4836632,5.18238939 L12.3841347,5.42817945 L12.6904854,5.7910124 L12.8856049,5.74809668 L12.820638,6.0016896 L13.1460194,6.2786911 L12.5373648,6.75466551 L12.3306519,6.41133971 L12.0358946,6.41133971 L11.3851318,6.05630961 L11.1056865,5.94706959 L10.7688211,6.39183256 L10.7342596,6.0016896 L10.4203622,5.82612527 L10.4203622,5.50620804 L10.2021652,5.07314936 L9.78108342,4.77664071 L9.78108342,4.40990633 L9.34468952,4.40990633 L9.30258134,4.28896201 L8.98868397,4.18752484 L8.62885041,3.45795751 L8.70552011,2.69327731 L7.91301129,2.72839018 L7.46907074,3.11463171 L7.21631226,3.08342027 L6.93697642,3.29409747 L7.01353675,3.51257752 L6.76077828,3.73495901 L6.44316227,3.56719754 L5.78080602,4.24214486 L5.70435506,4.66349925 L5.18363543,4.65179496 L5,4.85076787 L5.52050089,5.00682506 L6.45453695,4.97171219 L6.67284327,5.67006809 L6.56183079,6.53228402 L6.8564787,6.37622684 L6.18274777,8.34644878 L6.61531365,8.79901461 L6.62690707,8.84583177 L6.49664514,9.27498902 L6.18274777,9.05650897 L6.17137309,9.05650897 L5.99900297,9.55199052 L5.32527204,10.3946993 L5.10718447,11.1671824 L5.34824014,11.4675925 L5.20660353,11.853834 L5.79239945,13.3597858 L6.10629681,13.7460273 L6.09470339,14.3195375 L5.80377412,13.8435631 L5.50912621,14.1205646 L5.95306677,15.0842177 L6.30141629,14.4521861 L6.98674064,16.0010536 L6.8105425,16.5121409 L7.73320388,17.5967383 L9.23378641,18.4901657 L10.5887949,19.1221973 L10.7726491,19.7971446 L11.0559223,19.9297932 L11.4041625,20.327739 L11.8483218,20.5033034 L12.2081553,20.3589505 L12.6636893,20.7686006 L12.5105687,21.1119264 L12.5525675,21.5879008 L11.5457991,22.461821 L11.5573925,22.461821 L11.5650485,22.6842025 L11.44638,22.7817383 L11.7296533,23.6478556 L12.6636893,24.8299888 L13.3143428,25.204526 L13.5977254,25.2942589 L13.7048005,25.7936419 L13.6168655,26.6987736 L12.9890707,27.7716667 L12.7287656,28.1032882 L12.8053259,28.5792626 L12.587129,29.0357299 L12.6942041,29.2659142 L13.2378918,29.5 L13.4560888,29.3322385 L13.5095716,29.3322385 L13.7928449,29.2425056 L13.8120943,29.1332656 L13.7163939,28.9772084 L14.2676283,28.7899398 L14.2370042,28.5909669 L14.3976715,28.391994 L14.5317614,28.6026712 L14.5622762,28.6026712 L14.9221098,28.3802897 L15.6686824,28.337374 L15.8868793,28.1696125 L15.6916505,27.8496953 L15.8218031,27.7170467 L16.0821082,28.0252596 L16.5797503,27.9277239 L17.2994175,27.4283409 L17.4064926,27.5180738 L17.87362,27.1435365 L18.0152566,26.8197179 L18.5778657,26.4998006 L19.3932332,26.4334763 L20.5111234,25.4034989 L21.2804454,24.4554515 L21.5943428,24.1433372 L21.7475728,23.7219828 L21.1196687,23.3162341 L20.043996,23.2030926 L19.6766158,22.9377954 L19.6305702,22.9377954 L19.2823301,22.9377954 L19.0333996,23.0938526 L18.7310957,23.0938526 L18.5473509,22.9143869 L18.3175605,23.0392326 L18.1875173,22.9143869 L18.4707906,22.6607939 L18.7196117,22.6724982 L18.7960626,22.5944696 L18.654426,22.2511438 L18.6239112,21.9858466 L18.0993636,21.5761965 L17.6783911,21.4435479 L17.4600848,21.5761965 L17.1232193,21.3889279 L16.9279905,21.4006322 L16.970208,21.1470393 L16.6676854,21.0260949 L16.2505409,21.0299964 L16.4494884,20.8310235 L15.9977824,20.554022 L15.5308738,20.6593606 L14.9643273,20.4876977 L14.424577,20.0975547 L14.1526784,20.3511476 L14.2178641,20.5891348 L14.0991956,20.6320505 L13.9039667,20.4720919 L14.0494313,20.3628519 L14.0110418,20.2809219 L14.1374757,20.1521747 L14.0876021,20.0429347 L13.5746479,20.1833861 L13.5555078,20.1833861 L13.2492665,20.163879 L13.2149237,20.1755833 L12.7593897,20.6164448 L12.2922623,20.1482733 L12.0051611,20.1950904 L11.5612205,19.9532018 L11.4234119,19.5981717 L11.2894313,18.7476601 L10.2673509,18.5330814 L10.749681,17.4796954 L10.6922607,17.3548497 L10.137089,17.2885254 L9.66635229,17.9010498 L9.41742183,17.6630626 L8.93137309,17.6084426 L8.61747573,16.9178896 L8.61747573,16.0790822 L8.86618744,15.9698422 L8.86618744,15.4509521 L9.35628294,15.2285706 L10.2557575,15.396332 L10.6463245,15.5718964 L10.8645215,15.4392478 L12.0818308,15.813785 L12.0818308,16.2780551 L12.5143967,16.8008467 L12.7325936,16.6877052 L12.4606951,16.1922237 L12.4606951,15.8059822 L13.601444,15.0295977 L13.8082663,14.8306248 L13.6971444,14.3546503 L13.7087379,14.3234389 L14.0226352,14.0893531 L14.056978,14.2649175 L14.6427739,13.7226188 L15.0102635,13.7031116 L15.4351734,13.2934615 L16.5185021,13.01646 L16.0973109,13.3363772 L16.4342857,13.4690258 L16.4342857,13.4378144 L16.9127878,13.01646 L16.9011944,12.7745714 L16.6295146,12.7160499 L16.1930113,12.3298084 L16.5835784,11.8772426 L16.9777547,11.908454 L17.0850485,11.799214 L17.9654924,11.545621 L17.7587795,12.1659483 L17.5749253,12.353217 L18.5932871,12.5755985 L18.8419988,12.2439769 L18.1261597,11.9435669 L18.0611928,11.5222125 L18.1607212,11.4129724 L17.9961165,11.0267309 L17.8544799,10.7614337 L17.421914,10.6170808 L17.1616089,10.4064036 Z" id="Fill-1" fill-opacity="0.43" fill="#FFFFFF"></path>
                    <path d="M15.75,11.0773503 L17.430608,12.0476497 C18.0494101,12.4049153 18.430608,13.0651694 18.430608,13.7797005 L18.430608,15.7202995 C18.430608,16.4348306 18.0494101,17.0950847 17.430608,17.4523503 L15.75,18.4226497 C15.1311978,18.7799153 14.3688022,18.7799153 13.75,18.4226497 L12.069392,17.4523503 C11.4505899,17.0950847 11.069392,16.4348306 11.069392,15.7202995 L11.069392,13.7797005 C11.069392,13.0651694 11.4505899,12.4049153 12.069392,12.0476497 L13.75,11.0773503 C14.3688022,10.7200847 15.1311978,10.7200847 15.75,11.0773503 Z" id="Polygon" fill="#C80BC7"></path>
                </g>
            </g>
        </g>
    </g>
</svg>