<?xml version="1.0" encoding="UTF-8" standalone="no"?>
<svg
   xmlns:dc="http://purl.org/dc/elements/1.1/"
   xmlns:cc="http://creativecommons.org/ns#"
   xmlns:rdf="http://www.w3.org/1999/02/22-rdf-syntax-ns#"
   xmlns:svg="http://www.w3.org/2000/svg"
   xmlns="http://www.w3.org/2000/svg"
   xmlns:sodipodi="http://sodipodi.sourceforge.net/DTD/sodipodi-0.dtd"
   xmlns:inkscape="http://www.inkscape.org/namespaces/inkscape"
   inkscape:version="1.0beta1 (32d4812, 2019-09-19)"
   sodipodi:docname="icon.svg"
   id="svg86"
   version="1.1"
   viewBox="0 0 30 29.363798"
   height="29.363798"
   width="30">
  <metadata
     id="metadata92">
    <rdf:RDF>
      <cc:Work
         rdf:about="">
        <dc:format>image/svg+xml</dc:format>
        <dc:type
           rdf:resource="http://purl.org/dc/dcmitype/StillImage" />
        <dc:title>Group 15</dc:title>
      </cc:Work>
    </rdf:RDF>
  </metadata>
  <defs
     id="defs90" />
  <sodipodi:namedview
     inkscape:current-layer="Group-15"
     inkscape:window-maximized="0"
     inkscape:window-y="23"
     inkscape:window-x="0"
     inkscape:cy="11.949477"
     inkscape:cx="35.809847"
     inkscape:zoom="12.809148"
     showgrid="false"
     id="namedview88"
     inkscape:window-height="907"
     inkscape:window-width="1600"
     inkscape:pageshadow="2"
     inkscape:pageopacity="0"
     guidetolerance="10"
     gridtolerance="10"
     objecttolerance="10"
     borderopacity="1"
     inkscape:document-rotation="0"
     bordercolor="#666666"
     pagecolor="#ffffff" />
  <!-- Generator: Sketch 52.6 (67491) - http://www.bohemiancoding.com/sketch -->
  <title
     id="title70">Group 15</title>
  <desc
     id="desc72">Created with Sketch.</desc>
  <g
     transform="translate(0,-0.36929043)"
     fill-rule="evenodd"
     fill="none"
     stroke-width="1"
     stroke="none"
     id="Page-1">
    <g
       transform="translate(-20,-11)"
       id="Desktop-HD-Copy-21">
      <g
         transform="translate(20,11)"
         id="Group-15">
        <g
           id="Group-9">
          <path
             inkscape:connector-curvature="0"
             fill="#0F1D4F"
             id="Oval"
             d="m 8.9086499,16.268782 v -2.761554 c 0,-1.03823 0.5368132,-2.002656 1.4192141,-2.549729 l 2.75292,-1.7067606 c 0.882401,-0.5470727 1.419214,-1.5114992 1.419214,-2.5497287 l 5e-6,-3.3317145 c 0,-1.6568569 -1.343148,-3.00000477 -3.000005,-3.00000477 -0.288872,0 -0.576231,0.0417225 -0.853175,0.12387546 C 7.2062531,1.5137773 4.4425859,3.6845797 2.3558207,7.0055733 0.16669439,10.56252 -0.49676168,14.349517 0.36545244,18.366564 h 1.51e-6 c 0.34770579,1.619958 1.94281245,2.651322 3.56277045,2.303616 0.2948349,-0.06328 0.5784437,-0.170656 0.841264,-0.3185 l 2.6100033,-1.468204 c 0.9445984,-0.531364 1.5291582,-1.530898 1.5291582,-2.614694 z" />
          <path
             inkscape:connector-curvature="0"
             transform="matrix(-1,0,0,1,45.5,0)"
             fill="#0F1D4F"
             id="path76"
             d="m 24.40865,16.268782 v -2.761554 c 0,-1.03823 0.536813,-2.002656 1.419214,-2.549729 l 2.75292,-1.7067606 c 0.882401,-0.5470727 1.419214,-1.5114992 1.419214,-2.5497287 l 5e-6,-3.3317145 c 0,-1.6568569 -1.343148,-3.00000477 -3.000005,-3.00000477 -0.288872,0 -0.576231,0.0417225 -0.853176,0.12387546 C 22.706253,1.5137773 19.942586,3.6845797 17.855821,7.0055733 15.666694,10.56252 15.003238,14.349517 15.865452,18.366564 h 2e-6 c 0.347706,1.619958 1.942812,2.651322 3.56277,2.303616 0.294835,-0.06328 0.578444,-0.170656 0.841264,-0.3185 l 2.610004,-1.468204 c 0.944598,-0.531364 1.529158,-1.530898 1.529158,-2.614694 z" />
          <path
             inkscape:connector-curvature="0"
             transform="rotate(-120,14.845471,23.720696)"
             fill="#0F1D4F"
             id="path78"
             d="m 16.555757,29.123048 -0.02727,-2.424144 c -0.01204,-1.070692 0.547489,-2.066636 1.468185,-2.613303 l 2.555735,-1.517479 c 0.920697,-0.546668 1.48023,-1.542611 1.468186,-2.613304 l -0.03462,-3.077517 c -0.01864,-1.65675 -1.376806,-2.984704 -3.033556,-2.966067 -0.253709,0.0029 -0.506032,0.03788 -0.750925,0.104245 -3.455057,0.936287 -6.212115,3.008709 -8.271174,6.217268 -2.1487148,3.420248 -2.7653591,7.080998 -1.8499331,10.982251 l -1.18e-5,3e-6 c 0.3785006,1.613048 1.9929699,2.613847 3.6060189,2.235347 0.25603,-0.06008 0.503049,-0.153559 0.734706,-0.278042 l 2.554881,-1.372884 c 0.983662,-0.528577 1.592334,-1.559761 1.579774,-2.676374 z" />
          <path
             inkscape:connector-curvature="0"
             fill="#FFFFFF"
             fill-opacity="0.43"
             id="Fill-1"
             d="m 10.097087,4.5165287 0.05177,0.1491751 0.366963,0.06854 0.137108,0.4434936 -0.222443,0.012095 0.09645,0.50397 0.589194,0.217715 0.259288,-0.1249845 0.211221,0.318509 0.452192,-0.217715 -0.366857,-0.4797794 0.188881,-0.387049 H 11.586643 L 11.438524,4.8229424 11.24202,4.8713235 11.345883,4.6173227 10.927147,3.9117647 H 10.58983 Z m 1.224654,-0.8256148 -0.01106,0.217043 0.43183,0.064732 -0.368545,0.1941964 0.293985,0.4759716 h 0.729751 L 12.524272,4.4258141 12.353029,4.2620798 12.219012,4.3725052 11.880143,4.0145746 12.174234,3.7784927 12.047769,3.6680672 Z m 1.54938,-0.022847 -0.346849,0.068647 0.01586,0.1750503 0.469581,-0.05835 -0.01586,-0.1064031 z m 0.611854,0.2436975 -0.230548,0.2088836 0.457404,0.2785114 0.02803,-0.1539142 z m 0.374149,0 -0.11926,0.4177671 0.387595,0.069628 0.03407,-0.020479 0.06377,-0.1638303 z m 0.548919,-0.3154345 -0.118363,0.4776679 0.02291,0.030571 0.496361,0.4012411 -0.313089,0.3133501 -0.553634,-0.1069976 -0.08411,0.053499 0.401017,0.2292806 -0.293999,0.3018861 0.259526,0.1413897 -0.484798,0.5197027 0.465816,0.4776679 h 0.03055 l 0.423816,0.087891 0.07254,0.072605 0.206072,-0.1490324 0.595634,0.4203478 -0.270981,0.1108189 0.07636,0.1948885 0.282545,0.011464 0.07625,0.2025312 -0.312981,0.4356331 -0.477379,0.076427 -0.152618,0.3133501 0.259635,0.1719604 h 0.03436 l 0.324544,-0.1719604 0.484907,0.5502734 0.519271,0.022928 0.03436,-0.1069976 -0.507816,-0.3477423 0.679524,0.1643178 0.03447,-0.1528537 L 16.292199,7.9182691 16.368449,7.7577727 16.86492,8.1781204 17.1359,7.639311 16.86492,7.616383 16.192944,7.1387154 16.433489,6.855936 15.803492,6.3820894 15.696474,6.087846 15.34913,5.9273496 l -0.042,-0.2522087 -0.465925,-0.072605 -0.435162,-0.1528538 0.683452,-0.087891 -0.129927,-0.1834245 -0.465707,-0.099355 0.03425,-0.095534 0.431453,-0.042035 0.401016,0.1299257 0.206181,-0.1872458 V 4.7541972 L 15.979127,4.429383 16.376217,4.2344945 17.029123,3.8447175 16.399125,3.4243698 16.238762,3.638365 15.868291,3.4969753 15.520947,3.7262559 15.34913,3.5542954 h -0.03065 l -0.412362,0.064963 0.183381,0.2598513 -0.24829,0.030571 -0.118363,-0.2369232 z m -1.312933,0.83267 -0.0834,0.1243354 0.317565,0.5520494 0.41059,0.024867 -0.03538,-0.2387241 h -0.18284 l 0.02575,-0.3929 -0.153971,-0.099468 -0.08019,0.1143886 z m 3.812533,0.1749276 -0.142067,0.1440385 -0.433439,-0.085644 -0.165089,0.1440384 0.272517,0.1751819 -0.237876,0.042822 v 0.2530405 l 0.563887,0.2647193 0.414364,-0.097323 0.752105,0.6072973 -0.07673,0.3192203 0.07673,0.2335759 h 0.379835 l 0.161032,0.276398 -0.356705,-0.046715 -0.09986,0.3776143 0.402855,0.1518243 0.141958,-0.3620426 0.09975,0.45158 -0.326011,0.3192204 0.05371,0.3776143 0.456568,0.5722608 0.03059,0.2647193 0.794199,0.5294386 0.468188,-0.06618 0.195672,-0.8253014 -0.130448,-0.4204365 0.195672,-0.167396 0.195673,0.046715 0.03442,-0.046715 0.303209,-0.4632588 V 7.4301957 l 0.314501,-0.054501 0.437385,-0.506081 0.06533,-0.3542568 -0.307047,-0.4204365 -0.237876,-0.042822 -0.08813,-0.1868607 0.218693,0.011679 0.0114,-0.3114345 -0.3145,-0.2218971 -0.02313,-0.2958627 -0.226256,-0.1751819 -0.111375,-0.342578 -0.3145,-0.1557172 0.0114,-0.6072972 -0.195672,-0.035036 -0.306937,0.2102183 -0.30299,-0.085644 -0.533303,0.1090021 0.0114,-0.1012162 0.587127,-0.1090021 -0.360651,-0.2102183 -0.422039,0.1790748 0.07662,-0.1985394 0.149632,-0.058394 -0.184053,-0.042822 -0.391454,0.042822 -0.130338,0.2647193 -0.172652,-0.054501 -0.260897,0.1323596 0.149632,0.2218971 -0.29159,0.035036 -0.01162,-0.1790749 -1.043476,0.3192204 -0.130557,0.2102182 0.0422,0.023358 0.491209,0.1635031 z m 5.909956,2.8012879 -0.744395,0.081686 -0.08091,0.2083001 1.043657,0.3594198 h 0.04462 L 23.446602,7.6257687 23.127113,7.3235294 Z M 21.885206,2.9369745 21.747573,3.08256 l 0.04464,0.025319 0.383035,0.2152134 -0.375702,0.053803 0.02976,0.072793 h 0.431605 l 0.394302,0.2183782 0.06324,-0.1234312 v -0.015824 l -0.401848,-0.2183782 -0.01477,-0.16141 z m 5.930328,8.8212075 0.128101,0.304622 0.04382,0.18598 0.249461,0.192392 0.06405,-0.109022 -0.212379,-0.153914 v -0.03848 l 0.03362,-0.272556 -0.249461,-0.157121 z m 2.161369,2.069465 c 0.0154,0.266545 0.0231,0.536952 0.0231,0.807359 0,2.167119 -0.458096,4.226076 -1.274201,6.091885 l 0.154092,-1.255462 -0.130995,-0.40561 -0.238672,0.262681 -0.481193,-0.328352 -0.677521,1.13571 -0.827543,0.297448 -0.51595,-0.251092 -0.05389,-0.243367 -0.565774,-0.818947 0.0308,-0.27427 0.250111,-0.262681 -0.0076,-0.394022 -0.188737,-0.506047 0.07699,-0.394022 0.85086,-1.653346 0.25396,-1.093217 0.01936,-0.660566 h 0.392544 l 0.558295,-0.502185 0.380995,-0.722373 0.284867,0.150655 0.119336,0.428789 0.635286,-0.04249 0.04224,-0.733962 0.292676,-0.262681 z M 20.048544,0.5 c 4.66453,1.7163113 8.250913,5.6086602 9.466019,10.420462 l -0.289098,-0.130256 -0.398487,-0.260512 -0.16799,0.141749 0.210852,0.674265 -0.08974,0.08428 -0.296912,-0.390768 -0.59773,-0.486543 v 0.249018 l 0.441349,0.302653 0.121109,0.379274 -0.04297,0.122594 -0.499951,-0.609137 h -0.343793 l -0.01953,0.467388 -0.234516,0.01915 -0.296912,0.360119 0.07423,1.27191 -0.175691,0.367781 -0.730671,0.176228 -0.265658,-0.348626 0.07813,-0.651279 -0.144437,-0.206877 0.121108,-0.229863 0.300819,-0.01149 0.339886,-0.237525 v -0.360119 l -0.265658,-0.226032 -0.0078,-0.172397 -0.343905,-0.130256 0.05481,-0.229863 0.02344,-0.03448 0.206945,-0.118762 0.125015,-0.9002976 -0.03505,-0.4903746 0.222684,-0.3371326 -0.511782,-0.29116 0.144549,-0.3601189 0.199132,0.076621 -0.08584,0.294991 0.363214,0.1187626 0.222796,-0.1723974 0.04286,-0.4022604 -0.47651,-0.8504936 0.222684,-0.030648 V 7.2158343 7.1851859 l -0.488342,-0.2643426 0.300707,-0.5746578 -0.378841,-0.1953837 -0.01953,0.4788815 -0.886829,-1.107174 -0.132941,0.1187626 1.140879,1.5515761 0.386766,1.0113977 -0.1095,0.076621 -0.511782,-0.5976442 h -0.09767 L 25.967247,8.1621041 25.732843,8.227232 25.013892,7.5529669 25.103747,6.7177975 24.724906,5.943925 24.271724,5.281153 24.38502,5.1394041 24.10753,4.6413673 v -0.294991 l 0.285303,0.1225936 0.609451,0.5401784 0.445256,0.057466 -0.976684,-1.1531467 -0.695287,-0.7700415 -0.410207,-0.088114 -0.886829,-0.7930277 0.0663,-0.095776 0.906362,0.50953 L 22.95504,2.0554079 20.583763,0.90609232 Z m -2.886935,9.906404 0.06508,-0.234086 -0.478502,-0.8193004 -0.413535,0.2887058 -0.409598,-0.1443529 0.0078,-0.4408615 -1.071845,-0.4759744 -0.555063,0.6866516 0.283164,0.5305944 -0.03434,0.4408614 -0.509127,0.101437 -0.09953,0.819301 -0.486268,-0.210678 -0.110903,-0.542298 0.04594,-0.265298 -1.366712,-0.8973284 0.03073,-0.3979458 -0.29093,-0.2652972 -0.01148,-0.253593 0.669903,-0.30041 0.643107,-0.011704 -0.05359,-0.308213 0.409598,0.011704 0.07656,-0.1014372 -0.313897,-0.1755643 0.02297,-0.078029 0.336865,0.1560572 0.237337,-0.035113 0.356006,0.046817 0.371208,-0.3004101 -0.09942,-0.4525658 -0.325491,-0.035113 -0.248712,0.2652972 -0.206822,-0.019507 0.164605,-0.3433258 -0.07645,-0.1326486 -0.237446,0.1326486 -0.187573,-0.2457901 0.187573,-0.2652972 -0.241165,-0.5071858 0.359833,0.011704 0.214369,-0.30041 -0.160777,-0.1560572 -0.543469,0.1326486 0.01137,-0.2652972 -0.34824,-0.085832 -0.01914,0.2770015 -0.271899,-0.058521 -0.09953,0.24579 0.30635,0.362833 0.19512,-0.042916 -0.06497,0.2535929 0.325381,0.2770015 L 12.5374,6.7546642 12.330687,6.4113384 H 12.035895 L 11.385132,6.0563096 11.105686,5.9470696 10.768821,6.3918326 10.73426,6.0016896 10.420362,5.8261253 V 5.506208 L 10.202165,5.0731494 9.7810834,4.7766407 V 4.4099063 H 9.3446895 L 9.3025813,4.288962 8.988684,4.1875248 8.6288504,3.4579575 8.7055201,2.6932773 7.9130113,2.7283902 7.4690707,3.1146317 7.2163123,3.0834203 6.9369764,3.2940975 7.0135367,3.5125775 6.7607783,3.734959 6.4431623,3.5671975 5.780806,4.2421449 5.7043551,4.6634992 5.1836354,4.651795 5,4.8507679 5.5205009,5.0068251 6.4545369,4.9717122 6.6728433,5.6700681 6.5618308,6.532284 6.8564787,6.3762268 6.1827478,8.3464488 6.6153136,8.7990146 6.6269071,8.8458318 6.4966451,9.274989 6.1827478,9.056509 H 6.1713731 L 5.999003,9.5519905 5.325272,10.394699 l -0.2180875,0.772483 0.2410556,0.300411 -0.1416366,0.386241 0.5857959,1.505952 0.3138974,0.386241 -0.011593,0.57351 -0.2909293,-0.475974 -0.2946479,0.277002 0.4439406,0.963653 0.3483495,-0.632032 0.6853243,1.548868 -0.1761981,0.511087 0.9226614,1.084597 1.5005825,0.893428 1.3550082,0.632031 0.183854,0.674948 0.283273,0.132648 0.348241,0.397946 0.444159,0.175564 0.359833,-0.144353 0.455534,0.409651 -0.15312,0.343325 0.042,0.475975 -1.006769,0.87392 h 0.01159 l 0.0077,0.222382 -0.118669,0.09754 0.283273,0.866118 0.934036,1.182133 0.650654,0.374537 0.283382,0.08973 0.107075,0.499383 -0.08793,0.905132 -0.627794,1.072893 -0.260305,0.331621 0.07656,0.475975 -0.218197,0.456467 0.107075,0.230184 0.543688,0.234086 0.218197,-0.167762 h 0.05348 l 0.283273,-0.08973 0.01925,-0.10924 -0.0957,-0.156058 0.551234,-0.187268 -0.03062,-0.198973 0.160668,-0.198973 0.134089,0.210677 h 0.03052 l 0.359834,-0.222381 0.746572,-0.04292 0.218197,-0.167762 -0.195228,-0.319917 0.130152,-0.132648 0.260305,0.308213 0.497642,-0.09754 0.719667,-0.499383 0.107076,0.08973 0.467127,-0.374538 0.141637,-0.323818 0.562609,-0.319917 0.815367,-0.06633 1.11789,-1.029977 0.769322,-0.948048 0.313898,-0.312114 0.15323,-0.421354 -0.627904,-0.405749 -1.075673,-0.113141 -0.36738,-0.265298 h -0.04605 -0.34824 l -0.24893,0.156058 h -0.302304 l -0.183745,-0.179466 -0.229791,0.124846 -0.130043,-0.124846 0.283274,-0.253593 0.248821,0.0117 0.07645,-0.07803 -0.141637,-0.343326 -0.03052,-0.265297 -0.524547,-0.409651 -0.420973,-0.132648 -0.218306,0.132648 -0.336866,-0.187268 -0.195229,0.0117 0.04222,-0.253593 -0.302523,-0.120944 -0.417144,0.0039 0.198947,-0.198973 -0.451706,-0.277001 -0.466908,0.105339 -0.566547,-0.171663 -0.53975,-0.390143 -0.271899,0.253593 0.06519,0.237987 -0.118668,0.04292 -0.195229,-0.159958 0.145464,-0.10924 -0.03839,-0.08193 0.126434,-0.128747 -0.04987,-0.10924 -0.512954,0.140451 h -0.01914 l -0.306242,-0.01951 -0.03434,0.0117 -0.455534,0.440862 -0.467128,-0.468172 -0.287101,0.04682 -0.443941,-0.241888 -0.137808,-0.35503 -0.133981,-0.850512 -1.02208,-0.214579 0.48233,-1.053386 -0.05742,-0.124845 -0.555172,-0.06632 L 9.6663523,17.90105 9.4174218,17.663063 8.9313731,17.608443 8.6174757,16.91789 v -0.838808 l 0.2487117,-0.10924 v -0.51889 l 0.4900955,-0.222381 0.8994751,0.167761 0.390567,0.175564 0.218197,-0.132648 1.217309,0.374537 v 0.46427 l 0.432566,0.522792 0.218197,-0.113142 -0.271899,-0.495481 v -0.386242 l 1.140749,-0.776384 0.206822,-0.198973 -0.111122,-0.475975 0.01159,-0.03121 0.313897,-0.234086 0.03434,0.175564 0.585796,-0.542298 0.36749,-0.01951 0.424909,-0.409651 1.083329,-0.277001 -0.421191,0.319917 0.336975,0.132649 v -0.03121 l 0.478502,-0.421354 -0.01159,-0.241889 -0.271679,-0.05852 -0.436504,-0.386242 0.390567,-0.452565 0.394177,0.03121 0.107293,-0.10924 0.880444,-0.253593 -0.206713,0.620327 -0.183854,0.187269 1.018362,0.222382 0.248712,-0.331622 -0.715839,-0.30041 -0.06497,-0.421354 0.09953,-0.109241 -0.164605,-0.386241 -0.141636,-0.265297 -0.432566,-0.144353 z" />
          <path
             inkscape:connector-curvature="0"
             fill="#C80BC7"
             id="Polygon"
             d="m 15.75,11.07735 1.680608,0.9703 c 0.618802,0.357265 1,1.017519 1,1.732051 v 1.940598 c 0,0.714532 -0.381198,1.374786 -1,1.732051 L 15.75,18.42265 c -0.618802,0.357265 -1.381198,0.357265 -2,0 l -1.680608,-0.9703 c -0.618802,-0.357265 -1,-1.017519 -1,-1.732051 v -1.940598 c 0,-0.714532 0.381198,-1.374786 1,-1.732051 L 13.75,11.07735 c 0.618802,-0.357265 1.381198,-0.357265 2,0 z" />
        </g>
      </g>
    </g>
  </g>
</svg>
